#!OML:ASF I:\Actors\actors\Patient Classification 1\Patient 1\Session 1\Subject1.ASF
:FULLY-SPECIFIED
:DEGREES
450
root 0.681699 17.5462 8.03551 11.2506 -3.18629 -8.46382
lowerback 1.83347 1.51194 5.44645
upperback -9.11661 2.64765 2.21027
thorax -10.6315 0.939217 -0.955288
lowerneck -11.1897 -5.75608 -4.99561
upperneck 27.5462 -8.87552 5.92282
head 11.2649 -3.88603 1.83568
rclavicle 1.46604e-014 -4.96962e-015
rhumerus -8.57132 35.9291 -91.5472
rradius 68.1341
rwrist 43.7059
rhand -14.7127 -55.5137
rfingers 7.12502
rthumb 11.4419 -805.181
lclavicle 1.46604e-014 -4.96962e-015
lhumerus -11.4141 -23.5965 97.3309
lradius 52.1729
lwrist -40.0132
lhand -44.8197 -19.3596
lfingers 7.12502
lthumb -17.6101 9.8629
rfemur -9.16263 22.4101 21.202
rtibia 5.55254
rfoot -12.6137 -25.9871
rtoes 3.86455
lfemur -2.16237 -31.3551 -10.5515
ltibia -1.8743
lfoot -14.5053 42.7712
ltoes 6.90384
451
root 0.676422 17.5467 8.03581 11.2634 -3.26451 -8.43416
lowerback 1.64388 1.49242 5.23606
upperback -8.96958 2.59146 2.31539
thorax -10.3637 0.943806 -0.714808
lowerneck -11.3302 -5.7439 -5.10872
upperneck 27.5086 -8.82907 5.94319
head 11.2825 -3.87106 1.86439
rclavicle -1.90709e-014 4.37326e-015
rhumerus -7.94141 36.413 -91.2622
rradius 67.3119
rwrist 42.8011
rhand -14.0806 -55.4827
rfingers 7.12502
rthumb 12.0514 -805.116
lclavicle -1.90709e-014 4.37326e-015
lhumerus -11.211 -23.5055 97.3194
lradius 52.2031
lwrist -40.0946
lhand -44.7674 -19.4967
lfingers 7.12502
lthumb -17.5598 9.73026
rfemur -9.24631 22.2643 21.1573
rtibia 5.62661
rfoot -12.5499 -25.7579
rtoes 3.88641
lfemur -2.09036 -31.481 -10.6029
ltibia -1.94047
lfoot -14.8565 42.9271
ltoes 7.60599
452
root 0.672605 17.5464 8.03674 11.3103 -3.32385 -8.43094
lowerback 1.08791 1.42633 4.87413
upperback -8.58323 2.43608 2.591
thorax -9.62444 0.93228 -0.190658
lowerneck -11.6723 -5.70665 -5.35199
upperneck 27.3267 -8.69808 5.97571
head 11.2866 -3.82628 1.92516
rclavicle 4.66523e-015 -5.76476e-014
rhumerus -6.86118 36.9799 -90.4336
rradius 66.7598
rwrist 42.2741
rhand -13.1911 -55.4842
rfingers 7.12502
rthumb 12.909 -805.065
lclavicle 4.66523e-015 -5.76476e-014
lhumerus -10.5055 -23.1938 97.233
lradius 52.1416
lwrist -40.2018
lhand -44.6462 -19.4397
lfingers 7.12502
lthumb -17.4431 9.7977
rfemur -9.34559 22.1612 21.1326
rtibia 5.68478
rfoot -12.498 -25.5862
rtoes 3.79944
lfemur -2.04754 -31.662 -10.6146
ltibia -2.01632
lfoot -15.1517 43.1621
ltoes 8.10216
453
root 0.670244 17.5459 8.03675 11.3429 -3.31712 -8.42506
lowerback 1.08325 1.4349 4.83215
upperback -8.56543 2.44601 2.61793
thorax -9.6039 0.942418 -0.139564
lowerneck -11.6432 -5.75688 -5.42603
upperneck 27.2888 -8.75329 5.98236
head 11.2743 -3.85926 1.93271
rclavicle 2.35808e-014 -3.3694e-014
rhumerus -6.71529 36.8691 -90.0765
rradius 66.6136
rwrist 42.0747
rhand -12.755 -55.3979
rfingers 7.12502
rthumb 13.3294 -804.952
lclavicle 2.35808e-014 -3.3694e-014
lhumerus -10.4952 -23.2799 97.3038
lradius 52.1411
lwrist -40.1535
lhand -44.4876 -19.2999
lfingers 7.12502
lthumb -17.2905 9.95094
rfemur -9.3983 22.1532 21.1157
rtibia 5.71533
rfoot -12.522 -25.5666
rtoes 3.81353
lfemur -2.03695 -31.8104 -10.6137
ltibia -2.07334
lfoot -15.2239 43.3443
ltoes 8.24777
454
root 0.669491 17.5458 8.03561 11.3565 -3.19364 -8.38652
lowerback 1.14866 1.42787 4.82629
upperback -8.53972 2.43993 2.61601
thorax -9.61443 0.939913 -0.139513
lowerneck -11.6127 -5.83348 -5.35042
upperneck 27.1333 -8.811 5.78078
head 11.1985 -3.90431 1.8386
rclavicle -1.60022e-014 4.90004e-014
rhumerus -6.62349 36.4739 -89.5551
rradius 66.8071
rwrist 41.9439
rhand -12.6546 -55.3719
rfingers 7.12502
rthumb 13.4261 -804.919
lclavicle -1.60022e-014 4.90004e-014
lhumerus -10.4896 -23.4829 97.3553
lradius 52.2044
lwrist -40.0126
lhand -44.3576 -19.1929
lfingers 7.12502
lthumb -17.1654 10.0689
rfemur -9.41431 22.1232 21.0729
rtibia 5.73092
rfoot -12.6171 -25.6343
rtoes 3.88391
lfemur -2.08242 -31.9637 -10.6211
ltibia -2.09342
lfoot -15.0538 43.429
ltoes 7.91412
455
root 0.669356 17.5458 8.03525 11.3877 -3.01777 -8.34686
lowerback 1.1951 1.41065 4.82792
upperback -8.49543 2.41985 2.63439
thorax -9.59413 0.931787 -0.120288
lowerneck -11.5773 -5.91191 -5.24801
upperneck 26.8232 -8.8407 5.49235
head 11.0554 -3.94638 1.71308
rclavicle -2.32205e-014 -1.00386e-014
rhumerus -6.50793 35.7844 -88.8698
rradius 67.273
rwrist 41.7846
rhand -12.4489 -55.4372
rfingers 7.12502
rthumb 13.6243 -804.971
lclavicle -2.32205e-014 -1.00386e-014
lhumerus -10.4597 -23.6933 97.399
lradius 52.2884
lwrist -39.9332
lhand -44.3458 -19.0335
lfingers 7.12502
lthumb -17.1541 10.2292
rfemur -9.43965 22.0758 21.0274
rtibia 5.73889
rfoot -12.7101 -25.7373
rtoes 4.11187
lfemur -2.17109 -32.0993 -10.6067
ltibia -2.10191
lfoot -14.8478 43.4445
ltoes 7.46388
456
root 0.667812 17.5464 8.03506 11.4493 -2.85454 -8.38208
lowerback 1.22461 1.37816 4.82403
upperback -8.4638 2.38293 2.71231
thorax -9.58171 0.918386 -0.032695
lowerneck -11.4406 -5.95608 -5.09521
upperneck 26.4422 -8.82546 5.17665
head 10.8595 -3.96953 1.58023
rclavicle 2.67024e-014 1.68718e-014
rhumerus -6.45113 34.9829 -88.1007
rradius 68.004
rwrist 41.3874
rhand -12.4883 -55.6134
rfingers 7.12502
rthumb 13.5864 -805.15
lclavicle 2.67024e-014 1.68718e-014
lhumerus -10.4695 -23.8544 97.4322
lradius 52.3931
lwrist -39.714
lhand -44.4284 -19.0148
lfingers 7.12502
lthumb -17.2336 10.2411
rfemur -9.51066 22.0894 21.0682
rtibia 5.77471
rfoot -12.7709 -25.8904
rtoes 4.47564
lfemur -2.27243 -32.1674 -10.4733
ltibia -2.15602
lfoot -14.8634 43.3879
ltoes 7.67234
